<svg id="Capa_1" data-name="Capa 1" xmlns="http://www.w3.org/2000/svg" viewBox="0 0 1392 1400"><defs><style>.cls-1,.cls-11,.cls-13,.cls-14,.cls-16,.cls-18,.cls-2,.cls-3,.cls-5,.cls-6,.cls-8{fill:none;}.cls-1,.cls-2,.cls-3,.cls-5,.cls-6,.cls-7,.cls-8{stroke:#096abf;stroke-linecap:round;stroke-linejoin:round;}.cls-1{stroke-width:2.06px;stroke-dasharray:2.06 4.12;}.cls-2{stroke-width:6.28px;}.cls-3{stroke-width:4.38px;}.cls-4{fill:#096abf;}.cls-5{stroke-width:5.92px;}.cls-6{stroke-width:4.13px;}.cls-7{fill:#1074bf;opacity:0.02;}.cls-7,.cls-8{stroke-width:4.98px;}.cls-17,.cls-9{fill:#bf0909;}.cls-10{fill:#dd6631;}.cls-11,.cls-13,.cls-14,.cls-15,.cls-16,.cls-17,.cls-18{stroke:#bf0909;stroke-miterlimit:10;}.cls-11,.cls-15{stroke-width:1.71px;}.cls-12,.cls-15{fill:#e07146;}.cls-13{stroke-width:2.45px;}.cls-14{stroke-width:2.56px;}.cls-16{stroke-width:0.85px;}.cls-17{stroke-width:0.64px;}.cls-18{stroke-width:0.86px;}</style></defs><polyline class="cls-1" points="371.74 1046.74 1057.74 916.74 584.29 664.74"/><ellipse id="ellipse4600" class="cls-2" cx="373.48" cy="1063.74" rx="320" ry="80"/><ellipse id="ellipse41189" class="cls-3" cx="380.56" cy="1057.65" rx="183.5" ry="45.87"/><ellipse id="ellipse4600-2" data-name="ellipse4600" class="cls-4" cx="373.74" cy="1044.36" rx="12.73" ry="3.18"/><ellipse id="ellipse4600-3" data-name="ellipse4600" class="cls-4" cx="586.24" cy="665.86" rx="12.73" ry="3.18"/><ellipse id="ellipse4600-4" data-name="ellipse4600" class="cls-4" cx="1052.74" cy="916.36" rx="12.73" ry="3.18"/><ellipse id="ellipse4600-5" data-name="ellipse4600" class="cls-5" cx="1041.13" cy="926.39" rx="301.39" ry="75.35"/><ellipse id="ellipse41189-2" data-name="ellipse41189" class="cls-6" cx="1043.8" cy="920.66" rx="172.83" ry="43.21"/><ellipse class="cls-7" cx="600.06" cy="671.86" rx="339.14" ry="94.11"/><ellipse class="cls-8" cx="578.06" cy="662.86" rx="339.14" ry="94.11"/><ellipse class="cls-8" cx="578.06" cy="662.86" rx="204.29" ry="39.43"/><path id="path1134" class="cls-9" d="M382.08,811.28a7.2,7.2,0,0,1-4.4,1.76s-1.73,0-1.76,0a5.18,5.18,0,0,0-3.52-.88,7.85,7.85,0,0,0-6.16,5.28c-1.94-2.24-6.79,3.79-6.16,1.76,0,0-18.47,4.43-18.47,4.4.15-2.2-5.33,1.8-10.64-3.6-2.45-2.49-7.25-4.78-10.66-5.56-3-.68-3.39-7.26-6.22-8.22a.18.18,0,0,1-.13-.11c-.32-.67-2.44-5.25-2.68-5.77a.19.19,0,0,0-.07-.08c-2-1.19-4.07,0-5.73-1.58l-.05,0c-.93-.58-1.19-1.26-.39-2.13a2.5,2.5,0,0,0-.63-3.31c-.09-.09-4.23-1.19-4.15-1.28,1.21-1.43,5.32-1.76,6.16-3.52,1.71-4.17,2.18-8.79,2.46-13.34s1.29-9.19-1.15-12.89l0,0c-.59-1.61-.27-3.47-.28-5.19a.2.2,0,0,1,.2-.21c2.39-.11,13.53-.77,15.75-1.72a11.06,11.06,0,0,0,5.33-4.4c1.84-2.38,1.11-5.31,2-8.24a.22.22,0,0,0-.2-.28c-1.33-.07-.89-.14-2.21-.21-5.39-.36-19.62-.51-25-1.27l-.1,0c-1.4-.91-2-2.78-3-4.14-3.2-5.18-6.54-9.1-12-11.68-3.16-1.81-6.81-1.7-10.26-1.54a35.42,35.42,0,0,0-8.65,1.5c-1.08.41-2-.58-3.09-.31-1.11.08-2.89.8-2.59,2.31a.28.28,0,0,1-.07.23,10.3,10.3,0,0,1-2.37,1.25h0c-2.59.94-4.9.87-6.81,3h0c-.81.87-1.6,1.76-2.35,2.69-2.35,2.57-3.46,6.06-4.46,9.44s-1.47,7.06-2.2,10.6h0a20.06,20.06,0,0,0-.89,8c.28.73,1.74-.13,2.5,0,1.53-.48,2.5,1.11,3,2.46a.13.13,0,0,1,0,.06c.21,1.53-.92,2.85-1.45,4.19-.78,2-.48,4.33-.31,6.46,0,1.06.91,1.88.53,2.92a.3.3,0,0,1-.17.16c-.91.39-2,3.66-2.83,4.22-1.66,1.25-25.43,8.42-26.41,10.43l-7,11.44c-3.13,5-14.28,38.88-15,40.47-12.31,46.62,17.62,33.65,15.84,38.71-1.28,2.54-.7,8.63-1.2,11.44-.64,3.34,1.81,6.82,1.08,10.13-.25,4-4.81,18.83-4.72,26.37.05,4,4.32,1.9,4.84,4,.38,1.49.82,3.18,1.31,5,5.24,19.81,16,59,7.93,80.73-6.52,17.59-12.78,54.76-18.48,76.54-.46,1.75,2.22,2.78,1.76,4.4-2.46,8.73-8.54,10-7,17.28a9.27,9.27,0,0,0,7,6.91c3,.71,6.19,1.77,9.62,2.72a49.93,49.93,0,0,0,13.2,2.12c1.72,0,12,1,16.71.88s12.62-2.31,14.08-2.64c4-.88,3.49-11.68-.88-14.07a26.49,26.49,0,0,0-6.26-2.09,54,54,0,0,0-9.58-1.43c-3.36-.06-7.32-4-7.92-6.16-.73-2.73,3.5-2.32,4.4-5.28,1.25-4.07,4.43-14.89,7-18.47,4.6-6.33,15.37-25.56,15.82-26.37a.14.14,0,0,0,0-.06l7.92-33.4L262,1055.42c-.09-.26-3.83,18.84-5.28,25.52-.45,2,2.92,4.35,2.48,6.46s-.88,4.34-1.26,6.32a8.37,8.37,0,0,0,7,9.91c8.55,1.24,16.57-.11,20.8-.7,3.85-.34,9.71,2.89,13.47,1.74,3.39-1.06,6.86-1.77,10.28-2.7l.05,0c2-1.16,4.41-1.07,6.22-2.6s1-4.2.8-6.25c-.34-2.94-1.67-6.13-4.41-7.12-3.23-1.16-6.75-.88-10-.27h0c-2,.61-4.11,1.64-6.18.69a37.53,37.53,0,0,1-7.64-4.21.1.1,0,0,1-.05,0,11.28,11.28,0,0,1-2.12-4.66.08.08,0,0,1,0,0,60.63,60.63,0,0,1,.42-9.61v0c.46-3.11.55-6.56,2.34-9.17l0,0c1.16-2.81,1.36-6,2.19-8.9a66.73,66.73,0,0,0,2.21-8.53c1-4.62,1.25-9.42,2.44-14,.54-2.26,1.58-4.45,1.68-6.81.18-1.07,3.17-33.88,5.07-38h0c.93-1.52,1.05-22.73.88-24.62-.45-4.18,2.18-12.73,3.08-21.56,0,0,10.57-9.64,10.55-9.68-2.19-4.5-3.53-59.13-3.53-59.13,2-3.74,4.38-23.34,5.73-23.12,0,5.27,9.12,4,15.4,4.83L353,845.6c12.32-5.28,16.51-10.74,20.24-12.32,0,0,9.21-4.84,9.24-4.84.56-.06,3-3.91,9.23-4.84,5.51-.82,14.46.81,15,.88,0,0,3.26.69.88-1.76-1.19-1.22-6.81-2.49-8.36-4s-.35-4.45,0-5.28,5.06-3.14,6.16-3.52c3.3-1.13,6.76,2.18,11,2.2,5.64,0,2.64-3.52,2.64-3.52l-19.49-3.74a10.12,10.12,0,0,0-6.47.89Z"/><ellipse class="cls-10" cx="410.15" cy="819.64" rx="7.99" ry="7.48"/><path class="cls-9" d="M507.88,720.67c-.87-2.64-3.95-11-3.95-11l.88-7.92s26.83-4,18.91-8.36-19.79.44-20.23-1.76c-.65-3.22-2.08-10.47-1.74-15.46a5.09,5.09,0,0,0-4.86-5.44l-4.84-.21s-12.32-1.76-20.24,0-11.43,4.4-11.43,4.4l-3.08,14.51s-20.68-1.32-21.56,8.36,19.36,9.68,19.36,11.44,5.28,5.28,5.28,5.28,1.76,8.8,1.76,12.32c0,1.75,2.86.87,4,2.19s.44,4.84.44,4.84-1.52-2.4-3.52,4.4c-1.2,4-4.76,5.06-7.92,13.2a102.29,102.29,0,0,0-3.52,12.32l-4.4,7L446.3,777l-4.4,5.28-3,1.13a5.73,5.73,0,0,0-3.62,4.5c-.35,2.15-1.85,5.5-6.55,10.21l-5.28,5.28-13,3.4,16.06,9.35,27.27-8.8-2.2,9.24s-14.53,5.78-24.47,1.73a22.58,22.58,0,0,1-4.12-2.17c-10.56-7-6.25.54-6.25.54l8,6.5c-8.8,6.16-20.29,2.18-20.29,2.18l4.45,5.74,3.1,3.61a8.55,8.55,0,0,0,5.51,2.94l12.06-1.71.88,3.52h20.13a7,7,0,0,0-.84,1.4c-.87,1.9-3.16,12.18.07,12.67,11.44,1.76,5.42-.61.88,17.6-1,4-3.76,28.92-4,33-3.31,67.9-1.17,60.21-.91,70.8l-1.12,1.55a16.85,16.85,0,0,1,.71,2.87c.51,2.57-.86,5.93-4.4,8.8-2.52,2-5.95,3-11.44,7-13.19,9.67,1.76,15,1.76,15a43.72,43.72,0,0,0,15.84,1.76c2.53-.26,5.36-1.43,8.11-2.5a12.42,12.42,0,0,1-4.15,5.58c-2.52,2-5.95,3-11.44,7-13.19,9.68,1.76,15,1.76,15a43.67,43.67,0,0,0,15.84,1.76c5.1-.53,11.36-4.75,15.83-4.4,9,.69,14.73-2.57,19.31-5.4a7.69,7.69,0,0,0,3.3-6.62c-.52-5.51-2.52-7.75-5-10.86C487.21,1007,502.61,996,502.61,996s8-92.66,13.76-114.56c2.14-8.19,13-21.89,13.51-23.57,1.76-6.16.44-40.91.44-40.91s3.52-26.39,4.4-53.66S508.76,723.31,507.88,720.67Z"/><path class="cls-9" d="M444.54,976.68l.17-.23C444.54,976.1,444.54,976.68,444.54,976.68Z"/><path id="path1134-2" data-name="path1134" class="cls-9" d="M992.12,694.52c-1.23,2.47-.67,8.35-1.16,11.07-.61,3.23,1.75,6.6,1,9.79-.24,3.86-4.65,18.22-4.56,25.52,0,3.89,4.18,1.83,4.68,3.82.36,1.45.79,3.08,1.27,4.89,5.07,19.15,15.44,57.08,7.66,78.08-6.3,17-12.36,53-17.86,74-.45,1.69,2.14,2.68,1.7,4.25-2.39,8.44-8.26,9.66-6.74,16.71a9,9,0,0,0,6.8,6.69c2.87.69,6,1.72,9.3,2.63a48.38,48.38,0,0,0,12.76,2.06c1.67,0,11.62,1,16.17.85s12.2-2.24,13.61-2.56c3.83-.85,3.38-11.29-.85-13.61a25.94,25.94,0,0,0-6-2,53.56,53.56,0,0,0-9.26-1.39c-3.26-.05-7.09-3.81-7.66-6-.72-2.64,3.38-2.24,4.25-5.11,1.2-3.94,4.29-14.4,6.81-17.87,4.45-6.11,14.86-24.71,15.3-25.5,0,0,0,0,0,0l7.65-32.31-7.65,32.34c-.09-.26-3.7,18.21-5.11,24.67-.43,2,2.83,4.21,2.4,6.26s-.85,4.19-1.22,6.11a8.11,8.11,0,0,0,6.78,9.59c8.28,1.19,16-.11,20.12-.68,3.72-.33,9.39,2.79,13,1.68,3.28-1,6.64-1.71,9.94-2.61l0,0c1.9-1.13,4.26-1,6-2.51s1-4.07.78-6.06c-.33-2.84-1.61-5.92-4.27-6.87-3.12-1.13-6.52-.86-9.71-.26h0c-1.93.59-4,1.58-6,.67a36.86,36.86,0,0,1-7.4-4.07l0,0a11.14,11.14,0,0,1-2.06-4.51v0a60.43,60.43,0,0,1,.4-9.3h0c.45-3,.54-6.35,2.27-8.87l0,0c1.13-2.72,1.32-5.77,2.13-8.61a65.67,65.67,0,0,0,2.13-8.25c1-4.47,1.21-9.11,2.36-13.54.52-2.19,1.54-4.3,1.63-6.58.17-1,3.07-32.78,4.9-36.74h0c.91-1.47,1-22,.85-23.82-.43-4,2.11-12.3,3-20.84,0,0,10.22-9.33,10.21-9.36-2.12-4.37-3.42-57.2-3.41-57.2"/><polygon class="cls-10" points="941.97 714.32 991.63 684.34 998.35 688.37 1073.52 638.25 1182.7 623.93 1170.17 638.25 1171.96 645.41 1143.33 685.68 1137.06 677.63 1120.95 700.89 1104.84 719.69 941.97 714.32"/><polygon class="cls-10" points="1103.95 720.58 1137.96 678.52 1142.43 686.58 1171.07 646.3 1169.28 639.14 1181.81 624.83 1196.13 673.15 1158.54 739.38 1136.17 776.96 1103.95 720.58"/><path class="cls-9" d="M1149.14,637.8l-36.69,3.58c-1.38-.91-12.51-2.24-14.32-2.24a8.59,8.59,0,0,0-7.49,4.24,9.14,9.14,0,0,0-1.9-.21,8.55,8.55,0,0,0-7.74,4.72,8.49,8.49,0,0,0-7.93-5.17,8.29,8.29,0,0,0-8.5,8.06,7.8,7.8,0,0,0,.43,2.52,9,9,0,0,0-2.22-.28,8.28,8.28,0,0,0-8.5,8.05,7.72,7.72,0,0,0,.49,2.68,7.87,7.87,0,0,0-3.17,6.27v0a8.26,8.26,0,0,0-8.06,8,7.86,7.86,0,0,0,.43,2.53,9,9,0,0,0-2.22-.29,8.29,8.29,0,0,0-8.5,8.06,7.81,7.81,0,0,0,.36,2.32l-2,1.17a8.58,8.58,0,0,0-3.72,2.22l-2,1.21a8.72,8.72,0,0,0-4.26-1.11,8.3,8.3,0,0,0-8.51,8.06c0,.16,0,.31,0,.47a8.74,8.74,0,0,0-14.2,1,8.65,8.65,0,0,0-6.86-3.3,8.07,8.07,0,1,0,0,16.11,8.87,8.87,0,0,0,3.44-.69l106.64,5.61,36.24-41.62,4.48,7.16,27.74-39.37Z"/><path class="cls-9" d="M1040.41,655.25a143.51,143.51,0,0,1,17.06-1.14c1.85,0,3.66.08,5.31.25,9,.89,26-9.85,34-6.27s21.93,2.24,21.93,2.24l8.5,11.19h0a3.59,3.59,0,0,0,3.35-5.38l-5.14-8.94s12.14,17.61,14.76,16.55c9-3.57-10.29-29.08-4.92-21,2.69,4,6.27,10.52,10.29,13s6.27-.45.9-10.74c-10.74-20.58-21.48-11.63-25.51-13.87-8.46-4.7-17.45-.45-17.45-.45l-15.21-5.37s0-17,13.87-4.92c8.13,7.08,46.54,5.37,46.54,5.37s3.13,4.92,7.6,4,10.6-2.41,9.85-.9c-5.37,10.74,9,10.29,7.6-3.13-2.23-21.93-14.32-11.63-19.69-15.21s-7.15.89-7.15.89L1116,602s-4.92-4.92-9.4-8.5-9.84-17-15.21-23.27-16.11.9-9,.9c2.34,0,.6,1.42,1.79,0,2.45-2.92.45-6.71.45-6.71a2.39,2.39,0,0,0,3.58.89c6.71-4,9.29-11.43,10.74-14.32.89-1.79,5.37-6.26,5.37-6.26s4,.38,6.26,2.68c2.69,2.69,15.21,1.79,12.53-10.74l-16.11-8.94-.89-2.69c-4.48-32.22-33.87-24.14-43.86-16.11-6,4.82-1.9,6.6-8.94,8.95-7.56,2.52-10.71,7.65-10.16,11.16,1.21,7.63,9.26,9.42,9.26,9.42s4.48,3.58-.89,3.58-5.37,4.48-5.37,4.48-16,4.59-26,16.11c-9.41,10.86-15.9,42.83-18,54.63a26.25,26.25,0,0,0-.3,7.56c.9,8.31-1.05,14.95-5.83,23.72-2.74,5-4.47,36.69-4.47,36.69l10.29,7.61s56.38-30.43,58.17-37.59S1040.41,655.25,1040.41,655.25Z"/><polygon class="cls-10" points="941.97 714.32 973.29 771.59 1136.17 776.96 1103.95 720.58 941.97 714.32"/><polygon class="cls-9" points="455.74 403.06 455.74 359.49 424.13 359.49 420.71 385.97 428.4 386.83 428.4 397.08 405.33 397.08 403.63 385.97 379.7 385.97 380.56 397.08 362.62 397.08 360.05 385.12 339.55 384.26 335.28 399.64 335.28 413.31 295.98 413.31 295.12 424.42 333.57 441.51 333.57 482.94 348.95 473.97 395.08 474.83 395.08 447.49 417.3 438.09 484.79 437.24 484.79 411.6 495.9 405.62 455.74 403.06"/><polygon class="cls-9" points="635.16 279.39 645.56 264.65 665.91 270.18 667.62 377 635.16 377 635.16 279.39"/><polygon class="cls-9" points="510.42 322.98 519.05 311.64 535.92 315.89 537.33 398.05 510.42 398.05 510.42 322.98"/><path class="cls-9" d="M787.23,296.27,770.15,298l-135,70.92,53,3.41,93.12-52.11,13.67,1.71,3.42-6.84s14.52-3.42,15.38-6l.85-12.81-22.21-1.71Z"/><rect class="cls-9" x="702.74" y="366.75" width="109.17" height="4.27" transform="translate(179.86 982.2) rotate(-72.69)"/><rect class="cls-9" x="807.31" y="314.3" width="4.27" height="109.17" transform="translate(-73.09 257.49) rotate(-17.31)"/><rect class="cls-9" x="787.66" y="253.12" width="5.13" height="176.85" rx="1.59"/><polygon class="cls-9" points="510.85 386.4 510.85 396.65 594.57 306.09 592.01 296.69 510.85 386.4"/><polygon class="cls-9" points="538.02 388.49 598.85 308.65 598.85 306.09 592.01 306.09 592.01 296.69 609.95 297.55 612.52 305.24 544.17 394.94 514.26 395.8 515.55 389.39 538.02 388.49"/><polygon class="cls-9" points="536.57 367.84 568.09 367.84 569.14 362.31 542.39 362.31 536.57 367.84"/><polygon class="cls-9" points="557.5 343.49 589.02 343.49 590.08 337.97 563.32 337.97 557.5 343.49"/><rect class="cls-11" x="296.4" y="401.78" width="46.14" height="19.65"/><polygon class="cls-12" points="929.48 396.73 474.01 462.51 474.01 524.81 313.49 524.81 313.49 607.68 597.24 607.68 597.24 545.38 936.32 507.79 929.48 396.73"/><rect class="cls-11" x="310.93" y="401.78" width="46.14" height="19.65"/><rect class="cls-11" x="326.76" y="401.78" width="46.14" height="19.65"/><rect class="cls-13" x="356.21" y="390.67" width="83.73" height="22.21"/><polyline class="cls-14" points="744.22 410.21 789.88 408.25 825.21 413.23"/><path class="cls-9" d="M930.77,473.12c3,1.83,13.67,12.81,13.67,12.81,3.41,23.07-23.07,36.74-23.07,36.74-117,55.53-72.62,114.49-72.62,114.49l20.5,1.7.86,6.84s-131.92,14.67-270.37,15c-123.66.32-254.16-13.57-274.82-15-5.19-.37-9.73-24.39-11.73-29.19-3.54-8.53-8.82-21.54-9.95-25.92-1.69-6.53-2.14-27.76-2.14-27.76L314,560l5.95,1.17,1.71,26.48,159.76-23.92-.43-38.87,51.69-11.54.86-16.23,88-14.52,70-6.84s23.87,2.74,35.89-4.27c10.25-6,162.33-12,162.33-12S920.65,466.85,930.77,473.12Z"/><rect class="cls-9" x="630.46" y="265.08" width="15.38" height="3.42"/><rect class="cls-9" x="509.14" y="312.07" width="10.25" height="3.42"/><polygon class="cls-15" points="609.1 369.31 562.11 388.96 562.11 393.24 514.26 392.38 484.79 411.6 484.84 437.26 417.3 438.09 395.08 447.49 395.08 473.12 348.52 472.69 331.86 482.94 332.29 508.57 315.2 509.43 302.38 517.12 302.38 563.25 312.63 560.69 333.14 561.54 445.92 537.62 474.11 534.21 487.45 534.21 487.04 492.2 521.95 482.94 562.11 481.24 609.1 468.42 609.1 465.86 684.28 465.86 684.28 419 896.16 421.77 896.16 460.33 935.46 467.56 935.46 422.28 935.46 421.43 935.46 374.44 609.1 369.31"/><path class="cls-9" d="M943.58,484.65s-10.71-11-13.67-12.81c-10.12-6.27-41-13.67-41-13.67s-152.07,6-162.33,12c-12,7-35.88,4.27-35.88,4.27l-70.06,6.83,30.76-65.78,258,3.42Z"/><polygon class="cls-9" points="454.46 574.36 446.77 574.36 446.77 537.62 454.46 536.77 454.46 574.36"/><polygon class="cls-9" points="468.13 572.65 460.44 572.65 460.44 535.91 468.13 535.06 468.13 572.65"/><polygon class="cls-9" points="508.28 527.37 500.6 527.37 500.6 488.92 508.28 486.36 508.28 527.37"/><polygon class="cls-9" points="488.63 537.62 480.94 537.62 480.94 494.37 488.63 491.49 488.63 537.62"/><rect class="cls-9" x="328.87" y="561.54" width="0.85" height="27.34"/><rect class="cls-9" x="338.27" y="559.84" width="0.85" height="27.34"/><rect class="cls-9" x="345.96" y="558.13" width="0.85" height="27.34"/><rect class="cls-9" x="355.35" y="556.42" width="0.85" height="27.34"/><rect class="cls-9" x="363.9" y="554.71" width="0.85" height="27.34"/><rect class="cls-9" x="373.3" y="553" width="0.85" height="27.34"/><rect class="cls-9" x="382.69" y="551.29" width="0.85" height="27.34"/><rect class="cls-9" x="392.09" y="549.58" width="0.85" height="27.34"/><rect class="cls-9" x="406.62" y="546.37" width="0.85" height="30.56"/><rect class="cls-9" x="416.01" y="544.46" width="0.85" height="30.56"/><rect class="cls-9" x="430.54" y="541.24" width="0.85" height="30.56"/><rect class="cls-9" x="439.94" y="539.33" width="0.85" height="30.56"/><rect class="cls-9" x="534.77" y="482.94" width="0.85" height="30.56"/><rect class="cls-9" x="584.32" y="474.4" width="0.85" height="30.56"/><polygon class="cls-9" points="447.57 543.51 467.35 540.31 484.36 540.19 483.93 534.21 474.11 534.21 446.77 537.62 447.57 543.51"/><ellipse class="cls-16" cx="577.06" cy="489.35" rx="1.71" ry="5.13"/><rect class="cls-9" x="553.57" y="481.23" width="5.13" height="17.94"/><rect class="cls-9" x="608.24" y="465.86" width="7.69" height="25.63"/><rect class="cls-9" x="322.89" y="443.64" width="11.96" height="5.98"/><line class="cls-17" x1="482.65" y1="509.43" x2="533.49" y2="497.04"/><ellipse class="cls-16" cx="571.93" cy="491.06" rx="1.71" ry="5.13"/><polygon class="cls-9" points="381.84 359.92 403.2 359.92 408.32 354.79 376.71 353.94 381.84 359.92"/><rect class="cls-9" x="393.8" y="328.3" width="0.85" height="29.9"/><rect class="cls-9" x="392.09" y="358.21" width="0.85" height="29.9"/><rect class="cls-9" x="400.63" y="358.21" width="0.85" height="29.9"/><rect class="cls-9" x="380.13" y="337.7" width="0.85" height="48.7" transform="translate(761.11 724.1) rotate(180)"/><path class="cls-16" d="M521.44,311.71s47.5,2.07,70.57-15"/><polyline class="cls-16" points="808.51 360.28 792.51 357.08 759.94 359.12 795.25 316.13"/><path class="cls-9" d="M599.7,318.91s.85,6,3.42,6h2.56l.86-7.69h2.56l.85-13.67h-11.1Z"/><rect class="cls-9" x="600.55" y="338.56" width="6.83" height="2.56"/><rect class="cls-9" x="603.12" y="321.47" width="1.71" height="18.8"/><rect class="cls-18" x="771.43" y="289.86" width="42.29" height="9.4"/><path class="cls-18" d="M665.91,269.78S726.57,306.52,770.15,298"/><path class="cls-9" d="M394.42,332.43c-4.08-1.43-25.82,3.14-25.82,3.14v-3.42c25.63-2.56,25.2-2.14,25.2-2.14Z"/><rect class="cls-9" x="378.42" y="332.58" width="3.42" height="5.98"/></svg>