<?xml version="1.0" encoding="UTF-8" standalone="no"?>
<!-- Created with Inkscape (http://www.inkscape.org/) -->

<svg
   width="399.31528mm"
   height="229.75597mm"
   viewBox="0 0 399.31527 229.75596"
   version="1.1"
   id="svg5"
   inkscape:version="1.1 (c68e22c387, 2021-05-23)"
   sodipodi:docname="hero_figure.svg"
   xmlns:inkscape="http://www.inkscape.org/namespaces/inkscape"
   xmlns:sodipodi="http://sodipodi.sourceforge.net/DTD/sodipodi-0.dtd"
   xmlns="http://www.w3.org/2000/svg"
   xmlns:svg="http://www.w3.org/2000/svg">
  <sodipodi:namedview
     id="namedview7"
     pagecolor="#ffffff"
     bordercolor="#666666"
     borderopacity="1.0"
     inkscape:pageshadow="2"
     inkscape:pageopacity="0.0"
     inkscape:pagecheckerboard="0"
     inkscape:document-units="mm"
     showgrid="false"
     fit-margin-top="0"
     fit-margin-left="0"
     fit-margin-right="0"
     fit-margin-bottom="0"
     inkscape:zoom="0.52410025"
     inkscape:cx="643.96077"
     inkscape:cy="262.35439"
     inkscape:window-width="1920"
     inkscape:window-height="1017"
     inkscape:window-x="-8"
     inkscape:window-y="-8"
     inkscape:window-maximized="1"
     inkscape:current-layer="layer1" />
  <defs
     id="defs2">
    <pattern
       id="EMFhbasepattern"
       patternUnits="userSpaceOnUse"
       width="6"
       height="6"
       x="0"
       y="0" />
    <pattern
       id="EMFhbasepattern-9"
       patternUnits="userSpaceOnUse"
       width="6"
       height="6"
       x="0"
       y="0" />
    <pattern
       id="EMFhbasepattern-90"
       patternUnits="userSpaceOnUse"
       width="6"
       height="6"
       x="0"
       y="0" />
    <pattern
       id="EMFhbasepattern-4"
       patternUnits="userSpaceOnUse"
       width="6"
       height="6"
       x="0"
       y="0" />
    <pattern
       id="EMFhbasepattern-1"
       patternUnits="userSpaceOnUse"
       width="6"
       height="6"
       x="0"
       y="0" />
    <pattern
       id="EMFhbasepattern-6"
       patternUnits="userSpaceOnUse"
       width="6"
       height="6"
       x="0"
       y="0" />
  </defs>
  <g
     inkscape:label="Capa 1"
     inkscape:groupmode="layer"
     id="layer1"
     transform="translate(73.82048,-29.759286)">
    <ellipse
       style="fill:none;fill-opacity:1;stroke:#096abf;stroke-width:0.673569;stroke-linecap:round;stroke-linejoin:round;stroke-opacity:1"
       id="ellipse41189"
       cx="212.84528"
       cy="198.90619"
       rx="73.759842"
       ry="18.43996" />
    <ellipse
       style="fill:none;fill-opacity:1;stroke:#096abf;stroke-width:0.65477;stroke-linecap:round;stroke-linejoin:round;stroke-opacity:1"
       id="ellipse41107"
       cx="175.89877"
       cy="233.84473"
       rx="71.701782"
       ry="17.925446" />
    <ellipse
       style="fill:none;fill-opacity:1;stroke:#096abf;stroke-width:0.418382;stroke-linecap:round;stroke-linejoin:round;stroke-opacity:1"
       id="ellipse41271"
       cx="-0.66586673"
       cy="201.46242"
       rx="45.815617"
       ry="11.453904" />
    <ellipse
       style="fill:none;fill-opacity:1;stroke:#096abf;stroke-width:1.02403;stroke-linecap:round;stroke-linejoin:round;stroke-opacity:1"
       id="ellipse4600"
       cx="212.84528"
       cy="198.90619"
       rx="112.1375"
       ry="28.034374" />
    <ellipse
       style="fill:none;fill-opacity:1;stroke:#096abf;stroke-width:0.665001;stroke-linecap:round;stroke-linejoin:round;stroke-opacity:1"
       id="path4102"
       cx="-0.66586673"
       cy="201.46242"
       rx="72.822113"
       ry="18.205528" />
    <ellipse
       style="fill:none;fill-opacity:1;stroke:#096abf;stroke-width:0.920859;stroke-linecap:round;stroke-linejoin:round;stroke-opacity:1"
       id="ellipse4184"
       cx="175.89877"
       cy="233.84473"
       rx="100.84037"
       ry="25.210093" />
    <path
       style="fill:none;stroke:#096abf;stroke-width:1.965;stroke-linecap:butt;stroke-linejoin:miter;stroke-miterlimit:4;stroke-dasharray:3.93, 1.965;stroke-dashoffset:0;stroke-opacity:1"
       d="m 1.6850659,202.02848 208.7130641,-2.97825 -35.65594,34.6723 z"
       id="path9887"
       sodipodi:nodetypes="cccc" />
    <path
       id="path1134"
       style="fill:#bf0909;fill-opacity:1;stroke-width:0.275875"
       d="m 133.20898,34.414062 c -1.723,0.02433 -3.43278,0.403053 -4.95952,1.215058 -0.529,0.21696 -1.09919,0.554731 -1.64399,0.593536 -0.47586,-0.835436 -1.5995,-0.295815 -2.13444,0.198235 -0.58815,0.388767 -0.58407,1.200786 -1.22689,1.532234 -1.56918,0.972952 -3.08565,2.040894 -4.40214,3.345679 -1.58318,1.510667 -3.22346,3.132597 -3.86061,5.292515 -1.30684,3.500812 -0.41623,7.284252 0.3272,10.803212 0.12925,1.007728 0.64243,2.044353 0.38868,3.056641 -2.03662,2.759241 -4.35799,5.301067 -6.58037,7.912178 -0.58902,0.675822 -1.1771,1.352467 -1.76729,2.027275 1.64834,0.785489 3.35904,1.522006 5.20701,1.62732 1.42045,0.193051 2.87998,0.0015 4.1527,-0.678948 1.40802,-0.64874 2.74155,-1.485109 3.84927,-2.577278 0.72119,0.730974 1.69736,1.332745 2.11655,2.290278 0.45659,2.592979 2.08605,4.803647 4.06707,6.468768 2.00971,1.681794 4.27615,3.123506 6.75397,3.99953 1.13512,0.331037 2.33342,0.212341 3.49991,0.237517 -0.1138,0.759336 0.21466,1.657845 1.08203,1.736329 0.71652,-0.01824 0.88238,0.375438 0.70568,1.046811 -0.0967,1.363937 -0.0956,2.772268 -0.57148,4.063284 -0.16202,1.585262 -0.10708,3.193909 -0.354,4.776366 -0.0495,1.159234 -0.57612,2.590297 0.3702,3.53346 0.36119,0.345577 -0.31727,0.441246 -0.40566,0.738695 -1.01933,1.333696 -1.73747,2.921173 -3.07739,3.989953 -0.95105,0.83103 -0.96597,2.29979 -0.26008,3.2899 0.29087,0.49727 0.66502,0.93933 1.03805,1.37598 -1.63105,1.64378 -3.2975,3.32136 -4.27805,5.45568 -0.85122,1.67105 -1.63283,3.3762 -2.44656,5.06581 -2.11177,-0.20489 -4.36564,-0.82931 -6.41445,0.008 -1.65912,0.77449 -2.85124,2.22152 -4.275,3.31999 -1.18214,0.2788 -1.59767,1.88746 -1.07227,2.89258 -0.98519,0.34992 -2.11355,1.08295 -2.00102,2.27773 0.0368,1.21142 0.31367,2.60434 1.3018,3.40196 1.1309,0.54608 2.53834,-0.52298 3.5445,0.42826 0.80967,0.30606 0.2109,0.6981 -0.21651,1.0753 -2.20275,2.16026 -4.51177,4.20844 -6.79674,6.27769 -1.32096,1.23364 -1.88793,3.06214 -1.80733,4.83632 0.0443,0.8158 -0.004,1.74348 -0.7747,2.22618 -0.74407,0.67433 -1.24628,1.55152 -1.54856,2.49757 -0.5763,0.70739 -1.65333,0.4601 -2.45846,0.55408 -1.83832,0.0802 -3.999,-0.22594 -5.46759,1.1339 -1.043678,1.06691 -1.44834,2.55311 -2.060547,3.875 -2.935475,-0.15975 -5.77974,-0.47142 -8.673828,-0.81055 -0.559105,-0.0673 -1.469831,-0.0177 -1.40625,0.74805 0.51574,0.91302 1.707511,1.05423 2.509766,1.64648 1.012319,0.6284 1.986185,1.53278 3.268251,1.44993 1.812478,-0.0208 3.587848,-0.44352 5.374327,-0.70579 0.168711,0.34264 0.895981,0.85855 0.531191,1.17955 -1.74139,1.07975 -3.587721,2.05604 -5.56072,2.76049 -0.435754,0.0394 -1.129498,0.10168 -1.157099,0.6243 0.147997,0.59895 0.958874,0.79475 0.86955,1.50232 -0.11057,0.75701 0.405984,1.47386 1.188171,1.51928 0.330246,0.0798 0.695506,0.0868 1.001954,0.22656 -0.05296,0.77424 0.216874,1.63136 1.023437,1.90234 0.728382,0.37434 1.55957,0.50196 2.343747,0.625 0.37237,1.64839 2.65713,2.30655 3.96615,1.3567 0.27957,-0.48453 0.65969,0.081 1.06224,0.11619 0.80764,0.24809 1.7617,0.0785 2.33294,-0.56664 0.75063,-0.0428 1.54537,0.2252 2.26563,-0.15429 0.88371,-0.32003 1.65716,-0.99474 2.5128,-1.27759 2.66769,0.60759 5.2531,1.70899 7.41662,3.39397 0.63025,0.51968 1.61981,0.0492 1.58425,-0.78045 0.16161,-1.41175 -1.1132,-2.42395 -2.05705,-3.26698 -1.51805,-1.19659 -3.24399,-2.22914 -5.16365,-2.59825 0.29957,-1.23995 0.79508,-2.42114 1.50866,-3.47652 0.40751,-0.55252 0.32847,-1.38997 0.86107,-1.83074 2.29298,-1.08394 4.9198,-1.43052 7.07122,-2.82354 0.59935,-0.36906 0.83168,-1.0541 0.89694,-1.711 0.54851,-0.70523 1.43589,-1.07155 2.05504,-1.72127 2.79532,-2.50137 5.44833,-5.20819 7.55472,-8.32531 2.40734,-3.19721 5.56622,-5.72111 8.11094,-8.79326 0.50629,-0.70459 1.55838,-0.54118 2.32031,-0.73633 2.4452,-0.23147 4.94317,-0.73398 7.37695,-0.15625 2.14107,0.31809 4.05645,-0.9088 5.92943,-1.73975 2.09699,-0.95445 4.02505,-2.22997 6.09726,-3.22756 1.292,-0.55015 2.63763,-1.01956 3.75802,-1.90683 2.49653,-1.36105 4.86639,-3.1463 7.72115,-3.67078 1.22693,-0.0106 2.37748,0.58915 3.5305,0.95636 0.62758,0.2612 1.3053,0.44791 1.86208,0.84637 0.0301,0.64878 -0.7846,0.68128 -1.09442,1.14466 -0.49397,0.44247 -0.86372,1.03619 -0.94659,1.69324 -0.56057,0.54717 -1.44782,0.77745 -1.76094,1.58093 -0.35394,0.57919 -0.39386,1.358 -0.8543,1.85071 -0.66012,0.30915 -0.8096,1.1397 -1.4556,1.49415 -1.02814,0.73345 -2.12351,1.45971 -2.70752,2.6277 -1.56378,2.73534 -2.74258,5.77561 -5.06842,7.99079 -1.87797,2.20296 -3.76272,4.44607 -5.17504,6.98335 -1.01811,2.17018 -2.0406,4.4155 -2.32193,6.81807 -0.11021,1.09018 0.42621,2.07468 1.01859,2.92221 1.19597,2.33839 1.20666,5.19919 0.64825,7.63527 -0.86014,3.02084 -0.52879,6.47104 1.38511,9.03315 0.50964,0.46618 -0.65339,0.35901 -0.54024,0.97382 0.0627,1.35277 0.72387,2.60869 1.06641,3.9082 0.75145,2.63002 0.88606,5.3858 1.54135,8.039 0.309,1.67531 0.85485,3.28483 1.39445,4.89409 0.53086,1.68786 0.65112,3.50621 1.39428,5.1216 1.14395,1.50268 1.19783,3.48971 1.49219,5.2832 0.14682,1.85275 0.43604,3.68809 0.26367,5.53283 -0.27025,0.96111 -0.65528,1.972 -1.35938,2.70155 -1.50325,1.00281 -3.16497,1.78072 -4.85042,2.42686 -1.30915,0.54408 -2.64542,-0.0506 -3.91129,-0.39756 -2.08915,-0.35691 -4.31569,-0.51546 -6.35811,0.15329 -1.73613,0.56412 -2.57289,2.39548 -2.79066,4.08256 -0.13784,1.17941 -0.55536,2.71142 0.50787,3.59253 1.14818,0.88232 2.70085,0.82419 3.94558,1.49779 2.1664,0.53617 4.36689,0.94484 6.51573,1.55682 2.37512,0.65636 4.84502,0.95998 7.2761,1.15225 3.77101,0.48048 7.57401,0.58818 11.36136,0.86327 0.71697,-0.10562 0.35257,0.61753 0.21009,0.99016 -1.20107,2.66405 -2.79761,5.16752 -4.72265,7.36719 -1.56405,1.48209 -3.56626,2.4843 -5.6262,3.07972 -3.70838,0.97714 -7.68333,0.88251 -11.24045,2.42034 -0.81222,0.27923 -1.13878,1.08611 -1.33158,1.85312 -0.30473,1.16535 -1.07388,2.34632 -0.78111,3.58387 0.78826,1.85289 2.76814,2.7394 4.57944,3.28918 4.16339,1.32188 8.45382,2.43704 12.84758,2.50963 4.6179,0.13063 9.26964,0.0638 13.84162,-0.64695 4.0094,-0.82812 7.96956,-1.99537 11.7236,-3.63716 2.29888,-1.14703 4.75322,-2.67792 5.66288,-5.21738 0.78544,-2.34623 0.10891,-4.87308 -0.67101,-7.12674 -0.58053,-1.58701 -2.35163,-2.53364 -2.45407,-4.32968 -0.20266,-1.12154 0.43383,-2.09449 1.02435,-2.97679 0.5011,-1.00473 0.86312,-2.08405 1.57534,-2.97304 1.02098,-2.03416 1.81472,-4.2048 2.2832,-6.43359 0.16257,-1.66453 0.8328,-3.23661 0.96289,-4.91211 0.23974,-2.05784 0.99853,-4.03213 0.9668,-6.125 8.4e-4,-4.84662 0.007,-9.74896 0.32031,-14.54883 1.51281,-0.30222 3.18338,0.085 4.59766,-0.63086 0.83137,-0.89597 0.71566,-2.34339 0.29099,-3.40669 -0.35726,-0.46161 0.43141,-0.67482 0.62099,-1.03042 0.28531,-0.2737 0.37507,-0.67778 0.79228,-0.77944 1.3243,-0.88731 2.87744,-1.83018 3.32308,-3.46704 0.78223,-1.65229 2.54786,-2.81985 2.66384,-4.76765 0.14923,-1.618 0.33227,-3.37922 1.55163,-4.58844 1.1782,-1.48225 1.50959,-3.45811 2.74352,-4.9154 1.20362,-1.79905 1.7703,-3.93295 2.97601,-5.72875 0.76792,-1.52782 1.23496,-3.20044 2.20736,-4.62483 0.76635,-1.52465 1.46686,-3.11138 1.79124,-4.79095 0.69401,-1.73748 1.63554,-3.39213 2.05556,-5.22727 1.08068,-2.39825 2.44952,-4.65603 3.61999,-7.01211 0.89714,-1.68204 1.82971,-3.34454 2.48974,-5.12741 1.40961,-2.98642 2.82127,-6.05335 3.22501,-9.36435 0.4638,-1.20706 1.15902,-2.32475 1.55305,-3.56769 1.54045,-4.29904 2.18676,-8.92598 2.33478,-13.43589 0.16963,-1.58822 0.13564,-3.35708 1.14765,-4.6852 0.64359,-1.58589 4.1e-4,-3.41277 -0.91886,-4.756981 -0.40182,-0.555635 -1.10361,-1.000129 -1.04013,-1.778176 -0.52956,-2.073547 -1.79583,-3.864276 -2.91354,-5.659593 -1.9652,-3.073887 -4.46835,-5.744026 -6.61023,-8.689266 -1.32587,-1.776524 -2.84343,-3.439241 -4.732,-4.62998 -2.85803,-2.055736 -5.66888,-4.181876 -8.3721,-6.435848 -1.69,-0.979033 -3.03957,-2.463481 -4.7021,-3.500503 -1.38242,-0.887668 -2.71037,-1.930109 -4.3246,-2.36211 -2.87525,-1.19741 -5.32425,-3.17384 -8.00987,-4.708171 -0.95483,-0.324657 -1.92964,-0.62592 -2.83258,-1.10211 -1.37535,-0.607964 -2.65186,-1.635918 -4.09018,-2.240684 -1.51051,-0.662485 -2.90943,-1.48191 -4.45381,-2.054547 -1.3832,-0.538442 -2.44628,-1.729568 -3.89063,-2.175782 -1.54663,-0.477966 -3.21145,-0.579421 -4.65317,-1.382227 -3.17851,-1.414257 -6.58093,-2.231931 -10.00698,-2.77207 -1.30546,-0.359213 -2.49957,-1.067227 -3.86524,-1.228515 -2.17747,-0.334612 -4.4042,-0.562708 -6.60422,-0.36418 -1.84011,0.291687 -3.56237,1.228738 -5.47498,1.071547 -1.40041,0.0523 -2.80641,-0.478155 -4.19134,-0.186026 -0.63416,0.180909 -1.02786,0.779452 -1.60446,1.050924 -0.66137,-0.212925 -0.56509,-1.014963 -1.04143,-1.427341 -0.80514,-0.923035 -1.63379,-1.984622 -2.81095,-2.42693 -0.79248,-0.294522 -1.84025,-0.303193 -2.38199,-1.018775 -0.34564,-0.761334 -0.58666,-1.851896 0.28906,-2.363282 0.29005,-0.382426 1.28539,-0.711051 1.10401,-1.128859 -0.96295,-1.249982 -2.32011,-2.069522 -3.70571,-2.771648 -1.78803,-1.073694 -3.43822,-2.343639 -5.35892,-3.208295 -1.83826,-0.889104 -3.77129,-1.769574 -5.86006,-1.721595 -0.71498,-0.02882 -1.42924,-0.02255 -2.14417,0.0042 z" />
    <path
       style="fill:#dd6631;fill-opacity:1;stroke-width:0.275875"
       d="m 109.11045,209.87303 c -0.94682,-1.20368 -0.91759,-1.31025 2.14375,-7.818 0.53533,-1.13799 1.52293,-2.89879 2.19467,-3.9129 0.97066,-1.46538 3.1754,-6.44705 3.45437,-7.80525 0.11986,-0.5835 -1.24598,-0.41404 -3.05215,0.3787 -1.0441,0.45825 -2.6342,0.95187 -3.53357,1.09692 -2.59999,0.41933 -3.02011,-0.0691 -2.95802,-3.43873 0.003,-0.16572 0.87214,-1.46923 1.93131,-2.89669 1.05916,-1.42745 2.08393,-3.02988 2.27725,-3.56094 0.19333,-0.53106 0.52316,-1.35675 0.73297,-1.83488 0.22445,-0.5115 0.3819,-1.81736 0.38252,-3.17256 5.5e-4,-1.26679 0.18462,-3.42054 0.40899,-4.78613 0.51859,-3.15624 0.52584,-5.75978 0.0207,-7.43812 l -0.39684,-1.31863 0.93529,0.15178 c 1.29268,0.20977 5.40089,2.18462 6.0335,2.90034 0.2858,0.32337 0.6272,0.52146 0.75865,0.44022 1.4258,-0.88119 -2.69479,-4.72977 -6.00626,-5.60979 l -1.14158,-0.30337 0.42118,-1.44603 c 0.23166,-0.79532 0.65184,-1.74156 0.93374,-2.10276 0.28191,-0.36121 0.63576,-1.1143 0.78635,-1.67354 0.27035,-1.00398 0.31436,-1.0305 3.48956,-2.10202 4.04204,-1.36405 4.79049,-1.80229 4.79114,-2.80538 2.7e-4,-0.60115 0.25787,-0.92531 1.2156,-1.53035 0.6683,-0.4222 1.41339,-1.07027 1.65575,-1.44016 0.24236,-0.36989 1.09238,-1.16458 1.88894,-1.76598 0.79655,-0.60141 2.0065,-1.85389 2.68878,-2.78329 0.68228,-0.92941 1.84701,-2.52044 2.58829,-3.53563 1.60303,-2.19538 3.63365,-4.33783 5.60424,-5.91289 0.78898,-0.63062 1.64184,-1.53158 1.89524,-2.00212 0.35269,-0.65489 0.74671,-0.92187 1.68018,-1.13845 1.06938,-0.2481 1.19648,-0.22942 1.03281,0.15186 -0.36487,0.84997 -1.18229,3.23247 -2.04221,5.95229 -0.47973,1.51732 -1.34283,3.87605 -1.91801,5.24163 -1.2249,2.90811 -2.09903,5.40475 -2.36648,6.75894 -0.10488,0.53106 -0.5373,1.78803 -0.96095,2.79326 -0.80997,1.92195 -1.64881,6.08618 -1.6561,8.2214 -0.002,0.69398 -0.19505,2.00665 -0.42819,2.91704 -0.23313,0.91039 -0.58334,2.33804 -0.77826,3.17256 -0.1949,0.83453 -0.60615,2.01389 -0.91389,2.62082 -0.30773,0.60692 -0.64172,1.55696 -0.74221,2.11119 -0.11658,0.64303 -0.43589,1.1736 -0.88234,1.46612 -1.48797,0.97495 -2.57128,4.81935 -2.58624,9.17786 -0.005,1.55301 -0.20512,4.84282 -0.44397,7.31069 -0.47077,4.86408 -0.37666,6.62176 0.44028,8.2231 0.66275,1.29911 1.01055,5.07569 0.55785,6.0575 -1.28463,2.78605 -2.6003,4.26256 -4.21454,4.72973 -0.64742,0.18737 -1.52809,0.62752 -1.95705,0.97811 -0.42895,0.3506 -1.04967,0.69156 -1.37937,0.7577 -0.73393,0.14724 -6.65117,0.49383 -7.71195,0.45171 -0.42205,-0.0167 -0.9807,0.0788 -1.24144,0.21223 -0.26074,0.13348 -1.05731,0.31871 -1.77016,0.41162 -1.16879,0.15233 -1.35167,0.0983 -1.86215,-0.55073 z m -90.639322,-1.46555 c -2.041317,-0.31632 -7.016433,-2.61498 -7.954944,-3.67544 -0.430202,-0.4861 -1.086984,-1.56239 -1.459517,-2.39176 -0.372531,-0.82936 -0.866121,-1.71655 -1.096866,-1.97152 -1.376115,-1.52059 0.997868,-8.73462 4.302061,-13.07305 0.808921,-1.06212 2.322317,-3.66914 3.363106,-5.79338 2.395664,-4.88954 3.289345,-6.68149 5.296996,-10.62119 0.889198,-1.74491 1.925013,-3.79329 2.301811,-4.55194 0.376799,-0.75866 1.497114,-2.97571 2.489589,-4.92679 l 1.804502,-3.54741 -0.634852,-1.2804 c -1.206794,-2.43394 -1.05344,-6.26132 0.399492,-9.97048 0.208024,-0.53106 0.538437,-1.39138 0.73425,-1.91182 0.195814,-0.52045 0.773314,-1.49294 1.283333,-2.16111 0.510018,-0.66815 0.883493,-1.4217 0.829945,-1.67455 -0.05355,-0.25284 0.105765,-0.58385 0.354028,-0.73559 0.692806,-0.42342 5.497312,-5.62953 6.085633,-6.59432 0.286518,-0.46987 0.521409,-1.3035 0.521975,-1.85251 0.0011,-0.95938 -0.04273,-1.00408 -1.123883,-1.14909 -0.618699,-0.083 -1.359973,-0.36361 -1.647272,-0.62362 -0.510287,-0.4618 -0.506868,-0.48491 0.14788,-0.99994 0.368635,-0.28997 0.946552,-1.01884 1.284262,-1.61971 0.33771,-0.60088 0.708528,-1.0925 0.824042,-1.0925 0.115512,0 0.372892,0.34139 0.571956,0.75866 0.238965,0.50089 0.614489,0.78788 1.105271,0.84466 0.65074,0.0753 0.835036,-0.095 1.479508,-1.36676 0.86041,-1.69793 2.058001,-3.27117 2.490118,-3.27118 0.166667,-1e-5 1.21736,-0.99316 2.334872,-2.20701 1.11751,-1.21385 2.253619,-2.207 2.524686,-2.207 0.30893,0 0.492848,-0.2059 0.492848,-0.55175 0,-0.62533 0.286085,-0.70707 0.77245,-0.2207 0.257483,0.25748 0.331051,0.19618 0.331051,-0.27588 0,-0.72584 0.200828,-0.76035 0.874872,-0.15035 0.469445,0.42484 0.504503,0.42484 0.504503,0 0,-0.61932 0.230348,-0.57392 0.827085,0.16302 l 0.501715,0.61959 -0.144809,-0.75753 c -0.179637,-0.9397 0.254605,-0.98814 0.739306,-0.0825 0.592384,1.10688 1.11133,1.10967 1.11133,0.006 0,-0.52629 0.06803,-0.9569 0.151172,-0.9569 0.08314,0 0.451651,0.34139 0.818905,0.75866 0.386581,0.43921 0.671408,0.60009 0.676457,0.38208 0.0069,-0.29885 0.151063,-0.2833 0.698405,0.0753 0.379329,0.24854 0.689688,0.36773 0.689688,0.26485 0,-0.10289 0.250263,0.0394 0.556137,0.31624 0.529727,0.47939 0.572995,0.48024 0.911111,0.0179 0.337768,-0.46193 0.374321,-0.46085 0.754267,0.0222 0.353636,0.44963 0.350486,0.47615 -0.02753,0.23182 -0.234762,-0.15173 -0.110618,0.003 0.275875,0.34347 0.386493,0.34065 0.610429,0.61997 0.497632,0.62072 -0.112794,8.3e-4 0.06109,0.3075 0.386413,0.68165 0.743257,0.85482 0.963055,0.7179 1.205105,-0.75069 0.305695,-1.85474 0.467559,-1.97745 1.368283,-1.0373 0.981749,1.02473 1.136347,1.03262 1.329294,0.0679 0.08403,-0.42017 0.863428,-1.80746 1.731985,-3.08286 0.868555,-1.27541 1.996666,-3.05751 2.506914,-3.96023 1.120125,-1.9817 2.916169,-6.01254 2.752133,-6.17657 -0.0648,-0.0648 0.236605,-0.50587 0.669795,-0.98015 0.766605,-0.83934 3.290349,-5.688946 3.290349,-6.322726 0,-0.17418 0.434504,-1.09365 0.965563,-2.04327 0.989669,-1.7697 1.252225,-2.80025 0.62072,-2.43637 -0.189665,0.10929 -0.07068,-0.10314 0.264412,-0.47208 0.335095,-0.36893 1.12335,-1.78556 1.751686,-3.14808 0.628333,-1.36251 1.672871,-3.59459 2.321192,-4.960169 1.351595,-2.846919 2.628963,-6.822506 2.627683,-8.178212 -8.28e-4,-0.934237 0.725085,-3.78757 1.674413,-6.581109 0.283597,-0.834523 0.631054,-2.398903 0.772131,-3.4764 0.141074,-1.077497 0.445237,-2.324061 0.675913,-2.770142 0.230679,-0.446082 0.553615,-1.775919 0.717637,-2.955195 0.164022,-1.179275 0.410268,-2.353515 0.547212,-2.609423 0.136945,-0.255907 0.33523,-1.040433 0.440636,-1.743389 0.144895,-0.96632 0.38782,-1.423142 0.995827,-1.872662 0.442302,-0.327007 1.139855,-1.117442 1.550118,-1.756523 0.410262,-0.639081 1.151039,-1.624853 1.646172,-2.190604 0.495129,-0.565751 1.392397,-2.007497 1.993926,-3.203878 0.894622,-1.779314 1.234663,-2.20557 1.868199,-2.341882 0.779066,-0.167623 2.720755,-1.271096 4.482439,-2.547395 0.52205,-0.378211 1.26691,-0.750283 1.65525,-0.826827 0.38834,-0.07654 1.45094,-0.504621 2.36133,-0.951284 0.91038,-0.446663 2.08975,-0.894959 2.62081,-0.996213 1.13061,-0.215567 2.83062,-1.016971 4.00019,-1.88574 0.54803,-0.407079 1.41442,-0.67505 2.56456,-0.793214 0.95532,-0.09815 1.97709,-0.306975 2.27062,-0.464064 0.29352,-0.157088 1.99282,-0.476975 3.77623,-0.710858 2.5206,-0.330565 3.58195,-0.606146 4.76697,-1.23775 1.64156,-0.874941 2.99648,-1.041454 9.51926,-1.16986 1.8997,-0.0374 3.27724,-0.19615 3.68334,-0.42448 0.4475,-0.251609 1.98774,-0.381709 4.96575,-0.419447 l 4.31704,-0.05471 2.00383,-1.029455 2.00383,-1.029454 0.81418,0.927296 c 0.44779,0.510013 1.59444,1.343608 2.54811,1.852433 1.63556,0.872646 1.91867,0.930881 4.98987,1.02638 2.19646,0.0683 3.91081,-0.03419 5.26848,-0.314958 1.1069,-0.228911 2.25714,-0.352239 2.55609,-0.274062 0.29895,0.07818 2.33524,4.14e-4 4.52509,-0.172792 2.18985,-0.173213 5.6448,-0.3095 7.67767,-0.302861 2.03286,0.0066 4.26745,-0.116295 4.96575,-0.273188 0.71665,-0.161017 4.63398,-0.280596 8.99413,-0.274551 7.85269,0.01089 10.68817,-0.251397 13.10407,-1.21214 0.53106,-0.211189 1.58465,-0.465971 2.34131,-0.566184 0.75666,-0.100212 1.7126,-0.356405 2.12433,-0.569316 0.41173,-0.212911 1.40651,-0.390146 2.21064,-0.393856 0.80412,-0.0037 2.00548,-0.132034 2.66968,-0.285167 1.00223,-0.231066 1.48987,-0.180752 2.86692,0.295803 0.9126,0.315825 2.0451,0.780058 2.51667,1.031628 1.08359,0.578065 5.41561,0.632558 9.52989,0.119875 2.7832,-0.346817 2.90266,-0.339639 3.58637,0.215496 0.389,0.315845 1.18044,0.912503 1.75874,1.325906 0.57831,0.413404 1.62448,1.229674 2.32482,1.813934 0.70035,0.58426 1.67824,1.255363 2.17308,1.491341 0.73159,0.348871 0.93486,0.640118 1.08772,1.558523 0.29924,1.79799 1.14006,3.282732 3.84228,6.784914 0.52684,0.682791 1.4724,1.908671 2.10129,2.724177 l 1.14339,1.482739 -1.2066,2.655389 c -1.11572,2.455481 -1.2125,2.852693 -1.28524,5.276202 -0.0433,1.441448 -0.14305,4.482972 -0.2217,6.758942 -0.23041,6.667605 -0.23559,7.580434 -0.0597,10.483256 0.0919,1.517314 0.24227,4.180003 0.33406,5.91709 0.20729,3.92404 0.63225,6.46705 1.30293,7.79671 0.28393,0.56295 0.51624,1.22828 0.51624,1.47851 0,0.79444 1.37946,6.21559 1.77747,6.98522 0.21021,0.40655 0.47188,1.23146 0.58143,1.83315 0.10958,0.60168 0.49263,1.67952 0.8513,2.395196 0.35864,0.71568 0.65206,1.53396 0.65206,1.8184 0,0.28444 0.49657,1.51971 1.1035,2.74505 0.60692,1.22535 1.1035,2.42935 1.1035,2.67557 0,0.24622 0.22575,0.90826 0.50165,1.47121 0.27593,0.56295 0.72806,1.7684 1.00474,2.67879 1.00622,3.31068 1.67423,4.7394 3.41812,7.31069 0.97762,1.44145 2.26275,3.57614 2.85583,4.74375 0.5931,1.16761 1.47706,2.47301 1.9644,2.90088 0.48733,0.42788 1.22284,1.35267 1.6345,2.05509 0.41163,0.70243 1.14058,1.60709 1.61983,2.01036 l 0.87138,0.73322 -0.18707,2.95633 c -0.18771,2.96636 0.0374,4.97241 0.77951,6.94626 0.42399,1.12781 1.12618,3.36931 1.42595,4.55194 0.11537,0.4552 0.2274,2.06907 0.24892,3.58638 0.0268,1.88191 0.18127,3.0722 0.48634,3.74495 0.24594,0.54242 0.59335,1.82555 0.77198,2.85142 0.17866,1.02587 0.57233,2.50631 0.87485,3.28986 0.3025,0.78356 0.70925,1.9833 0.90385,2.66609 0.43269,1.51803 2.13164,5.26929 2.84795,6.28822 0.28867,0.41063 0.61214,1.36732 0.71882,2.12597 0.1298,0.92317 0.78075,2.44712 1.9682,4.60775 0.97585,1.7756 1.77426,3.37212 1.77426,3.54781 0,0.1757 0.55865,0.87019 1.24144,1.54333 0.68279,0.67313 1.24144,1.41023 1.24144,1.63801 0,0.22778 -0.33237,0.72218 -0.73863,1.09868 -0.63931,0.5925 -0.72991,0.87516 -0.67391,2.10248 0.0756,1.65616 0.5472,2.90639 1.37447,3.64349 0.47393,0.42227 0.58982,0.83901 0.58982,2.12069 v 1.59515 l -0.89668,-0.14551 c -0.66359,-0.10769 -1.10049,0.0148 -1.68077,0.47124 -0.66234,0.52102 -0.765,0.77111 -0.66124,1.6112 0.0675,0.54695 0.019,1.27664 -0.10803,1.62153 -0.27447,0.74562 -1.0339,0.64148 -2.83539,-0.38881 -0.62072,-0.35499 -1.30282,-0.64693 -1.5158,-0.64876 -0.21298,-0.002 -0.86142,0.51031 -1.44098,1.13809 l -1.05376,1.14142 -1.24097,-0.34745 c -0.68251,-0.1911 -1.56093,-0.28629 -1.95198,-0.21153 -0.43572,0.0833 -0.93861,-0.0484 -1.29882,-0.34005 l -0.58778,-0.47596 0.51362,-1.90227 c 0.2825,-1.04625 0.50971,-2.39884 0.50491,-3.00576 -0.0297,-3.75026 -0.30928,-7.53478 -0.59534,-8.05952 -0.49641,-0.91062 -1.14088,-4.91372 -1.14667,-7.12247 -0.003,-1.06698 -0.20194,-2.61878 -0.44256,-3.44844 -0.24062,-0.82965 -0.53457,-2.37747 -0.65322,-3.43959 -0.11865,-1.06212 -0.49624,-2.55184 -0.83905,-3.3105 -0.34283,-0.75866 -0.72704,-1.90225 -0.8538,-2.54132 -0.12677,-0.63907 -0.59137,-1.94258 -1.03249,-2.89669 -0.4411,-0.95411 -0.95563,-2.23132 -1.14345,-2.83824 -0.37036,-1.19706 -1.17043,-2.50715 -2.89845,-4.7462 -2.11001,-2.73403 -2.62532,-3.48248 -2.62532,-3.81315 0,-0.18271 -0.25093,-0.65121 -0.55765,-1.04113 -0.30672,-0.38992 -0.74655,-1.24464 -0.9774,-1.89936 -0.23085,-0.65473 -0.85441,-1.6358 -1.38572,-2.18016 -0.62844,-0.64391 -1.19611,-1.66996 -1.62463,-2.93654 -0.81598,-2.41185 -1.94966,-4.37358 -3.86101,-6.68101 -0.8106,-0.9786 -1.9509,-2.7071 -2.53399,-3.84111 -0.58309,-1.13401 -1.44738,-2.60672 -1.92062,-3.2727 -0.69518,-0.97828 -0.89513,-1.12048 -1.04101,-0.74031 -0.0993,0.25881 -0.25182,0.39931 -0.33892,0.31223 -0.0871,-0.0871 0.0344,-0.50831 0.26995,-0.93608 2.03102,-3.68851 3.4075,-9.30318 3.63995,-14.84739 0.15281,-3.64506 0.48173,-5.44509 1.13826,-6.22891 0.83419,-0.99596 0.13689,-3.79145 -1.26111,-5.055756 -0.3196,-0.28904 -0.58317,-0.84769 -0.58574,-1.24144 -0.009,-1.39783 -3.32164,-6.77628 -6.35928,-10.32504 -0.54139,-0.6325 -1.89655,-2.369333 -3.01147,-3.859638 -1.2465,-1.666206 -2.58101,-3.100379 -3.46548,-3.724315 -3.01243,-2.125055 -7.43576,-5.469909 -8.54714,-6.463203 -0.63664,-0.568992 -1.24655,-1.034532 -1.35536,-1.034532 -0.10881,0 -0.90186,-0.596053 -1.76234,-1.324565 -0.86047,-0.728509 -2.12314,-1.679009 -2.80593,-2.112221 -0.68279,-0.43321 -1.5542,-0.999069 -1.93647,-1.257462 -0.38226,-0.258393 -1.00298,-0.559347 -1.37937,-0.668784 -1.49539,-0.434793 -3.71797,-1.691369 -7.65827,-4.329751 -0.64929,-0.43476 -1.31656,-0.790473 -1.48281,-0.790473 -0.48814,0 -3.6324,-1.435332 -4.23353,-1.932569 -0.30346,-0.251019 -1.5449,-0.918019 -2.75875,-1.482225 -1.21385,-0.564206 -2.55846,-1.206057 -2.98802,-1.426333 -0.42955,-0.220275 -0.90116,-0.400501 -1.04801,-0.400501 -0.14685,0 -0.97476,-0.496718 -1.8398,-1.103816 -1.13633,-0.797493 -2.03216,-1.181245 -3.22805,-1.382825 -0.91039,-0.153455 -2.02769,-0.450245 -2.48288,-0.659534 -3.39217,-1.559651 -6.43953,-2.457401 -10.38652,-3.059865 -0.55372,-0.08452 -1.37457,-0.337157 -1.82411,-0.561417 -1.26719,-0.632161 -3.26723,-1.003418 -6.19481,-1.149915 -2.27109,-0.113645 -2.96255,-0.04029 -4.52666,0.480209 -2.06697,0.687845 -3.26893,0.779824 -5.9239,0.453321 -1.7195,-0.211462 -1.86751,-0.184065 -2.67465,0.495096 -0.74391,0.625959 -0.92773,0.673157 -1.4213,0.36492 -0.31178,-0.194714 -0.56688,-0.513152 -0.56688,-0.707641 0,-0.528492 -2.16883,-2.779479 -2.85317,-2.961244 -2.3344,-0.620038 -2.64492,-0.789683 -2.92711,-1.599171 -0.4726,-1.355708 -0.34392,-2.020154 0.52526,-2.712139 l 0.81424,-0.648243 -0.60733,-0.651556 c -0.33404,-0.358355 -1.22805,-0.964923 -1.98671,-1.347929 -0.75866,-0.383005 -1.94203,-1.106311 -2.62972,-1.607346 -1.81397,-1.321624 -5.52693,-3.10976 -7.20412,-3.469452 -0.80071,-0.171723 -2.58452,-0.251504 -3.98521,-0.178239 -2.09456,0.109559 -2.85821,0.283567 -4.38976,1.000265 -2.03019,0.95004 -2.51014,1.043008 -2.69894,0.522789 -0.18813,-0.518385 -1.69387,0.362963 -1.79396,1.050047 -0.0474,0.325599 -0.58408,0.81627 -1.3194,1.206359 -1.82856,0.970048 -5.42452,4.190663 -6.38726,5.720562 -1.2944,2.056947 -1.85268,4.058111 -1.79105,6.420026 0.0643,2.463858 1.36755,8.859244 1.89305,9.289715 0.5086,0.416621 0.46964,0.656869 -0.10887,0.671411 -0.26553,0.0067 -1.47593,1.206294 -2.68978,2.665826 -1.21385,1.459528 -2.99347,3.566817 -3.95472,4.682862 l -1.74771,2.029172 1.3339,0.591374 c 0.77801,0.344924 2.14042,0.643598 3.26921,0.716691 1.71116,0.1108 2.14586,0.02984 3.75324,-0.698977 0.99986,-0.453359 2.30149,-1.261003 2.89251,-1.794763 l 1.07457,-0.970474 1.31041,1.186727 c 0.72072,0.652701 1.31041,1.37916 1.31041,1.614358 0,0.235194 0.24841,1.091574 0.55203,1.903064 0.97871,2.615832 4.07988,5.481308 8.13025,7.512326 1.63126,0.817978 2.20732,0.96444 3.79329,0.96444 h 1.86994 v 0.815126 c 0,0.707816 0.12289,0.838178 0.93349,0.990248 l 0.93349,0.175126 -0.1417,2.38922 c -0.0779,1.314078 -0.25202,2.528868 -0.38686,2.699538 -0.13484,0.17067 -0.2303,0.85346 -0.21214,1.51731 0.0182,0.66385 -0.10403,2.31413 -0.27155,3.66728 -0.2598,2.09863 -0.24363,2.52762 0.11004,2.91841 0.51742,0.57175 0.5279,1.01182 0.0309,1.29758 -0.21103,0.12134 -0.78274,0.90341 -1.27046,1.73793 -0.48773,0.834516 -1.30822,1.867736 -1.82331,2.296046 -1.3119,1.09086 -1.23265,2.20647 0.28262,3.97862 l 0.52948,0.61924 -1.82282,1.88811 c -1.52403,1.57862 -2.10824,2.48652 -3.5641,5.53885 l -1.74129,3.65074 -1.65525,-0.22075 c -3.21244,-0.42842 -4.35032,-0.30905 -5.66999,0.59484 -0.66458,0.45519 -1.67804,1.29316 -2.25214,1.86215 -0.5741,0.569 -1.16092,1.03454 -1.30405,1.03454 -0.57014,0 -1.08591,1.15499 -0.82371,1.84461 0.33516,0.88153 0.37604,0.79761 -0.58185,1.19438 -0.46099,0.19095 -0.96286,0.58018 -1.11527,0.86496 -0.33341,0.62298 -0.0723,2.33003 0.49437,3.23175 0.37203,0.59203 0.53813,0.63567 1.78818,0.46984 1.20744,-0.16017 1.49152,-0.0963 2.2945,0.5162 l 0.91645,0.69901 -2.6746,2.55547 c -1.47103,1.40551 -3.38685,3.15405 -4.25738,3.88564 -2.06762,1.73763 -2.67733,2.94724 -2.67733,5.31161 0,1.74584 -0.0474,1.87934 -0.96556,2.72036 -0.53106,0.48643 -0.96557,1.05144 -0.96557,1.25558 0,0.20414 -0.4775,-0.14608 -1.06112,-0.77825 -0.74176,-0.80347 -1.28557,-1.1494 -1.80689,-1.1494 -0.90984,0 -2.04949,0.56396 -2.78743,1.37937 -1.2689,1.40213 -2.78688,1.69552 -4.862097,0.93974 -0.663935,-0.2418 -1.889946,-0.54733 -2.724468,-0.67895 -0.834523,-0.13162 -1.91765,-0.31985 -2.406953,-0.41828 -0.678065,-0.1364 -1.176674,-0.0108 -2.096607,0.52837 -1.318882,0.77292 -4.091273,3.61962 -4.732211,4.85906 -0.394088,0.76208 -0.383337,0.78672 0.485154,1.11177 1.785778,0.66835 3.945547,1.75726 4.850702,2.44563 1.073598,0.81647 1.864226,0.86227 5.233217,0.30317 l 2.298863,-0.38152 0.52272,0.68023 c 0.2875,0.37413 0.52361,0.86644 0.5247,1.09404 0.002,0.44732 -5.593783,3.30403 -6.502047,3.31928 -0.492903,0.008 -0.495149,0.0295 -0.0397,0.37526 0.304238,0.23094 0.482782,0.73782 0.482782,1.3706 0,0.8202 -0.101059,1.00411 -0.55175,1.00411 -0.70189,0 -0.682361,0.33712 0.127851,2.20701 0.770762,1.77884 0.779405,1.77287 -2.072095,1.4323 -2.9604,-0.35357 -3.021509,-0.31856 -3.021509,1.73081 0,0.94567 -0.07906,2.6547 -0.175697,3.79787 l -0.175694,2.07847 -1.244299,-0.55041 c -0.828715,-0.36658 -1.589422,-0.50413 -2.277636,-0.41182 -0.902385,0.12104 -1.109424,0.0357 -1.633684,-0.6734 -0.330186,-0.44661 -0.893096,-0.94539 -1.250903,-1.10842 -0.425554,-0.1939 -0.77391,-0.71416 -1.007187,-1.50423 -0.330736,-1.12013 -0.418042,-1.20151 -1.20267,-1.12101 -0.465327,0.0477 -0.988094,0.17458 -1.161705,0.28188 -0.173611,0.10729 -0.383723,0.0849 -0.466915,-0.0497 -0.08319,-0.13461 -0.511285,-0.31675 -0.951317,-0.40475 -0.560154,-0.11203 -0.852982,-0.37089 -0.97656,-0.86326 -0.242566,-0.96646 -0.51446,-0.88417 -1.218692,0.36884 -0.445108,0.79197 -0.60255,1.53361 -0.60255,2.83836 0,1.22161 -0.170143,2.09999 -0.551751,2.84849 -0.303462,0.59523 -0.55175,1.21595 -0.55175,1.37938 0,0.16343 -0.248288,0.78415 -0.55175,1.37938 -0.303463,0.59522 -0.551751,1.24202 -0.551751,1.43733 0,1.04795 -4.576413,5.7176 -9.489829,9.68316 -0.622251,0.50221 -1.582608,1.37122 -2.134124,1.93112 -1.304779,1.32463 -2.237519,2.00431 -4.229508,3.08202 -0.896868,0.48522 -2.518134,1.6074 -3.602811,2.49372 -1.084678,0.88632 -2.519968,1.89639 -3.189537,2.2446 -0.669565,0.34821 -2.009731,1.16369 -2.978144,1.81217 -0.968413,0.6485 -1.913784,1.17908 -2.100828,1.17908 -0.187043,0 -0.636143,0.22644 -0.998,0.50321 -0.925018,0.7075 -4.985216,2.28729 -6.826562,2.65615 -1.510491,0.30258 -1.548302,0.33307 -1.739754,1.40269 -0.273572,1.52844 -1.598316,3.97102 -2.525364,4.65631 -0.730471,0.53998 -1.16128,0.57775 -7.034817,0.61677 -3.441178,0.0229 -6.877411,-0.0546 -7.636067,-0.17218 z M 165.78339,129.34967 c -1.16974,-0.55422 -1.88887,-0.66831 -4.63668,-0.73566 -1.78872,-0.0438 -3.08995,-0.17577 -2.89161,-0.29318 0.19834,-0.11741 1.22962,-0.73172 2.29174,-1.36515 1.06212,-0.63342 2.73806,-1.48185 3.72432,-1.8854 0.98625,-0.40355 2.27605,-1.06171 2.86622,-1.46257 0.59016,-0.40087 1.16716,-0.72885 1.28221,-0.72885 0.11505,0 0.99777,-0.47647 1.9616,-1.05881 1.91321,-1.15597 4.06823,-1.97696 5.18103,-1.97381 0.80592,0.002 5.71185,1.78741 5.60629,2.03997 -0.0379,0.0908 -0.0724,0.38227 -0.0766,0.6478 -0.004,0.26553 -0.43526,0.79314 -0.95797,1.17247 -0.52271,0.37933 -0.95661,0.93798 -0.96423,1.24144 -0.008,0.33666 -0.35306,0.71884 -0.88395,0.98037 -0.61581,0.30336 -0.99694,0.78142 -1.30414,1.63583 -0.23873,0.66397 -0.66737,1.47115 -0.95253,1.79374 -0.47428,0.53653 -0.67417,0.56723 -2.34494,0.36021 -1.08806,-0.13482 -2.57278,-0.11315 -3.6725,0.0536 -2.41868,0.36677 -2.60216,0.34845 -4.2283,-0.42201 z M 26.877927,123.51013 c -2.041876,-2.23108 -2.557655,-3.50876 -2.430772,-6.02143 0.114819,-2.27374 0.644304,-3.16197 1.884889,-3.16197 0.73201,0 1.380902,0.84186 1.380902,1.79156 0,0.21242 0.620719,1.2063 1.379376,2.20863 1.610523,2.12779 1.710782,2.82378 0.53229,3.69508 -0.739635,0.54683 -0.836746,0.76951 -0.765562,1.75541 0.04623,0.64019 -0.04865,1.17252 -0.219089,1.22934 -0.16534,0.0551 -0.958255,-0.61837 -1.762034,-1.49662 z"
       id="path1263" />
    <path
       style="fill:#bf0909;fill-opacity:1;stroke-width:0.276146"
       d="m -26.864209,204.83777 c -0.3797,-0.21601 -1.31169,-0.47095 -2.07109,-0.56653 -2.0275,-0.25518 -2.94482,-0.66733 -2.76266,-1.24127 0.083,-0.26162 0.26678,-1.27042 0.40832,-2.24178 0.45141,-3.09788 1.13477,-6.42217 1.58353,-7.70324 0.23941,-0.68346 0.66206,-1.86399 0.93922,-2.62339 0.35204,-0.96458 0.50653,-2.17141 0.51258,-4.00411 0.0124,-3.75683 0.62282,-8.40552 1.5592,-11.87427 0.2255,-0.83534 0.57747,-2.14013 0.78216,-2.89953 0.20469,-0.7594 0.44103,-1.94338 0.5252,-2.63107 0.14711,-1.20194 0.11882,-1.26447 -0.73075,-1.61531 -2.03374,-0.83984 -4.3356,-2.10034 -4.3356,-2.37417 0,-0.16181 0.24853,-1.19105 0.55229,-2.28721 0.79531,-2.86999 0.74987,-3.22682 -0.48326,-3.79464 -1.72486,-0.79426 -4.02742,-2.38279 -4.84711,-3.34403 l -0.77397,-0.90761 0.71289,-1.78194 c 0.88933,-2.22295 2.06419,-6.1925 2.0719,-7.00036 0.003,-0.33389 0.30461,-1.57654 0.66983,-2.76146 0.36522,-1.18491 0.7478,-2.77571 0.85019,-3.53511 0.33575,-2.49015 2.33987,-9.91858 3.61333,-13.39307 0.36183,-0.98722 1.03979,-3.16187 1.50657,-4.83255 0.46678,-1.67068 1.04061,-3.53467 1.27517,-4.14219 0.23457,-0.60752 0.65518,-2.01921 0.93469,-3.13709 0.50381,-2.01496 0.50325,-2.0427 -0.0648,-3.2119 l -0.57299,-1.17938 0.70014,-0.93029 c 0.38507,-0.51166 0.92679,-1.65872 1.20383,-2.54902 0.53337,-1.71405 1.46746,-2.78715 4.48156,-5.14846 1.58515,-1.241842 2.25316,-2.431112 2.25316,-4.011322 0,-1.86375 1.14853,-3.76651 3.35237,-5.55384 1.43598,-1.16458 2.0614,-1.86779 2.18188,-2.45327 0.0929,-0.4514 0.31589,-1.09429 0.49554,-1.42865 0.17965,-0.33435 0.3725102,-1.95446 0.4285702,-3.60024 0.0905,-2.655901 0.1946,-3.177454 0.92608,-4.638857 0.45328,-0.905589 0.91396,-2.139141 1.02372,-2.74123 0.11542,-0.633066 0.65226,-1.663239 1.27304,-2.442907 0.5904,-0.741509 1.15501,-1.802212 1.25469,-2.357116 0.0997,-0.554904 0.34056,-1.319579 0.53529,-1.69928 0.19473,-0.3797 0.49856,-1.08005 0.67517,-1.556335 0.43622,-1.176387 1.76498,-2.482393 2.71995,-2.67339 0.49042,-0.09808 1.38958003,-0.811084 2.39451003,-1.898745 C 2.4460712,62.38756 2.8484112,62.052118 4.8639612,60.758514 l 0.93793,-0.601971 -1.00255,-0.347091 C 3.1298612,59.231466 0.12327123,57.473547 -0.97554877,56.432945 -2.2031888,55.270355 -2.3535788,54.024313 -1.4282988,52.68191 c 1.53780003,-2.231044 3.83013,-3.168442 8.39194,-3.431691 2.79329,-0.161194 3.1219498,-0.239818 4.0863698,-0.977554 1.06551,-0.815068 1.80653,-1.821123 1.34136,-1.821123 -0.4786,0 0.52473,-4.24309 1.21927,-5.156301 2.27827,-2.995566 12.1659,-4.205187 16.15438,-1.976277 1.26281,0.705701 3.27822,3.041644 3.74047,4.335353 0.19696,0.551253 0.37352,1.93427 0.39234,3.073371 0.0188,1.139101 0.24186,2.816687 0.49564,3.727968 l 0.46143,1.656874 3.17541,1.161665 c 2.86446,1.047913 3.43229,1.163735 5.79879,1.182807 2.1407,0.01725 2.73771,0.116512 3.24471,0.539474 0.68828,0.574183 0.80497,1.244864 0.27615,1.587126 -0.18985,0.122873 -2.58197,0.303183 -5.31581,0.400687 -3.73916,0.13336 -5.37701,0.307252 -6.61096,0.701892 l -1.64033,0.524611 -0.34275,2.034234 c -0.18852,1.118828 -0.41142,2.30779 -0.49534,2.642136 -0.1004,0.400057 0.0347,0.777413 0.39525,1.103678 0.30131,0.272677 0.54783,0.659361 0.54783,0.859299 0,0.199938 0.40386,0.480136 0.89747,0.62266 0.49362,0.142525 0.71108,0.270442 0.48326,0.28426 -0.22782,0.01382 0.33137,0.382715 1.24266,0.819774 1.79535,0.861067 2.9592,1.956131 4.14432,3.899391 0.41681,0.683461 1.35443,1.77248 2.08359,2.420045 0.72916,0.647562 1.46553,1.600927 1.63637,2.118587 0.17778,0.538661 0.83598,1.371683 1.53898,1.947739 0.67559,0.553598 1.22835,1.173228 1.22835,1.376957 0,0.585611 2.41941,3.400904 3.10665,3.614988 0.34173,0.106449 1.05625,0.532724 1.58783,0.947277 0.53158,0.414553 1.3393,0.958756 1.79494,1.209341 0.45564,0.25059 1.617582,0.95107 2.582082,1.55664 1.24247,0.78009 2.05767,1.10103 2.79668,1.10103 1.17422,0 1.80119,0.54616 1.58333,1.37925 -0.0796,0.30457 -0.059,0.55377 0.0459,0.55377 0.10492,0 0.41098,0.37279 0.68013,0.82843 0.31048,0.5256 0.71395,0.82844 1.10373,0.82844 0.38461,0 1.22751,0.61961 2.25394,1.65688 0.90178,0.91128 1.77453,1.65687 1.93945,1.65687 0.56007,0 2.34081,1.86649 2.34081,2.45352 0,0.70741 -0.18105,0.70733 2.10614,8.3e-4 1.42669,-0.44066 2.24954,-0.91348 3.36675,-1.93454 2.2165,-2.02575 2.59774,-1.42392 1.03234,1.6297 -0.52288,1.02 -1.34984,2.78654 -1.83767,3.92564 -0.48784,1.139102 -1.38615,2.826442 -1.99626,3.749642 -1.16884,1.76868 -1.12672,1.75089 -3.16151,1.33529 -0.34556,-0.0706 -1.09116,-0.54551 -1.65688,-1.05539 -1.01528,-0.91508 -1.04735,-0.92321 -2.48001,-0.62849 -1.08473,0.22315 -1.68271,0.21496 -2.36684,-0.0324 -1.2505,-0.45218 -2.02744,-0.41529 -2.22739,0.10578 -0.0922,0.24025 -0.16537,1.7625 -0.16262,3.38279 0.005,2.74649 0.0608,3.04714 0.82844,4.43987 0.94903,1.72174 0.99323,1.95793 0.36641,1.95793 -0.41281,0 -0.41597,0.0467 -0.0327,0.48326 0.69481,0.79124 0.86902,1.70364 0.36242,1.89805 -0.27223,0.10446 -0.3818,0.35745 -0.28581,0.6599 0.0856,0.26977 -0.0237,0.66983 -0.24286,0.88902 -0.25958,0.25959 -0.31246,0.5345 -0.15167,0.7885 0.84525,1.33527 -0.38988,1.00513 -1.81878,-0.48614 -0.67999,-0.70969 -1.32222,-1.20447 -1.42717,-1.09952 -0.10495,0.10495 0.25341,0.65454 0.79636,1.2213 1.08027,1.12765 1.96886,2.68631 1.80748,3.17045 -0.0564,0.16918 -0.45375,-0.15288 -0.88303,-0.71569 -0.53463,-0.70094 -0.93027,-0.97574 -1.25598,-0.87237 -0.26152,0.083 -0.63138,-0.0369 -0.82191,-0.26649 -0.19053,-0.22958 -0.44253,-0.35802 -0.55999,-0.28542 -0.11746,0.0726 -0.37201,-0.0589 -0.56566,-0.29226 -0.28211,-0.33992 -0.3991,-0.35304 -0.58856,-0.066 -0.17858,0.27057 -0.41535,0.15566 -0.967372,-0.46947 l -0.73092,-0.82772 0.15732,1.1729 c 0.0865,0.6451 0.0828,1.17291 -0.008,1.17291 -0.0911,0 -0.52219,-0.34152 -0.95788,-0.75893 -0.52373,-0.50177 -0.72938,-0.59534 -0.60689,-0.27615 0.27544,0.7178 -0.5774,0.61635 -1.10083,-0.13095 -0.35335,-0.50448 -0.42987,-0.52906 -0.42987,-0.13807 0,0.59636 -0.23192,0.60129 -0.87573,0.0186 -0.4744,-0.42932 -0.505,-0.42095 -0.505,0.13807 0,0.64975 -0.27564,0.76129 -0.7382,0.29873 -0.21105,-0.21105 -0.35059,-0.0803 -0.48473,0.45416 -0.13095,0.52173 -0.27631,0.66259 -0.47685,0.46205 -0.20053,-0.20053 -0.46946,-0.12579 -0.88219,0.24519 -0.63275,0.56876 -0.82242,0.76917 -2.49286,2.63408 -0.5889,0.65745 -1.23692,1.19536 -1.44005,1.19536 -0.20314,0 -0.51827,0.2796 -0.7003,0.62133 -0.18204,0.34173 -0.48569,0.74559 -0.6748,0.89747 -0.1891,0.15188 -0.6823,0.93507 -1.09599,1.74041 -0.71747,1.3967 -0.79797,1.4604 -1.74485,1.38073 -0.72144,-0.0607 -1.08166,-0.26301 -1.31834,-0.74036 l -0.32566,-0.65683 -0.70504,1.11687 c -0.38778,0.61428 -0.83435,1.19679 -0.99239,1.29446 -0.40338,0.2493 -0.35802,0.58714 0.14661,1.09177 0.44754,0.44754 0.21568,0.55992 -0.54943,0.26632 -0.24025,-0.0921 -0.43681,-0.33828 -0.43681,-0.54696 0,-0.20868 -0.30621,-0.45627 -0.68047,-0.5502 -0.37426,-0.0939 -0.7594,-0.41947 -0.85587,-0.72342 -0.12763,-0.40212 -0.25818,-0.46986 -0.47935,-0.2487 -0.40966,0.40967 -1.65362,0.38531 -2.10593,-0.0412 -0.30349,-0.2862 -0.32473,0.17388 -0.12427,2.69242 0.13297,1.67068 0.24177,4.37354 0.24177,6.00636 0,1.63282 0.076,2.96867 0.16882,2.96857 0.40527,-5.5e-4 -0.18877,1.58278 -0.9855,2.62655 -0.47854,0.62692 -1.03044,1.5661 -1.22645,2.08705 -0.196,0.52096 -0.52674,1.38212 -0.73497,1.9137 -1.45436,3.7128 -1.60786,7.54394 -0.39988,9.98026 l 0.63547,1.28166 -1.80627,3.55089 c -0.99345,1.95299 -2.11486,4.17221 -2.49203,4.93161 -0.37717,0.75941 -1.414,2.80979 -2.30407,4.55641 -2.00962,3.94357 -2.90418,5.73728 -5.30219,10.63161 -1.04181,2.12632 -2.55648,4.7359 -3.36593,5.79906 -1.80907,2.3761 -3.4860398,5.86293 -4.3163398,8.97474 -0.34446,1.29098 -0.63223,2.20144 -0.63949,2.02325 -0.007,-0.1782 -0.30232,-0.67527 -0.65569,-1.10459 -0.96207,-1.16886 -1.63936,-3.10496 -1.59609,-4.56255 0.0212,-0.71316 -0.093,-1.88339 -0.2537,-2.60051 -0.24538,-1.09493 -0.19332,-1.69468 0.32488,-3.743 0.3394,-1.34154 0.71738,-2.43916 0.83995,-2.43916 0.32944,0 0.27061,-2.59154 -0.11436,-5.03814 -0.38345,-2.43693 -0.28028,-2.35589 -3.27108,-2.56945 -1.12897,-0.0806 -2.70506997,-0.21954 -3.50243997,-0.30873 l -1.44977003,-0.16217 v -1.47396 c 0,-1.23975 -0.0973,-1.52605 -0.61267,-1.80184 -0.96349,-0.51565 -4.55544,-1.06088 -7.02818,-1.06684 l -2.2560102,-0.005 -0.46099,1.38792 c -0.25355,0.76336 -0.80765,2.03754 -1.23133,2.8315 -0.42369,0.79397 -1.03606,2.39056 -1.36083,3.54797 -0.32477,1.15741 -0.94904,2.83454 -1.38725,3.72696 -1.54257,3.14136 -2.23148,4.71745 -2.23148,5.10513 0,0.21542 -0.27198,0.88689 -0.6044,1.49216 -0.90811,1.65347 -0.94644,5.80152 -0.0829,8.97065 1.03818,3.81004 1.0754,4.51906 0.28647,5.45665 -0.62159,0.73872 -0.79609,0.79487 -2.14003,0.68862 -1.29166,-0.10212 -2.15382,0.0202 -4.2247,0.59912 -0.30376,0.0849 -0.86296,-0.0223 -1.24266,-0.23834 z m 56.34979,-83.33011 c 0.44681,-0.33034 0.81239,-0.76816 0.81239,-0.97292 0,-0.20477 -0.62133,-1.18295 -1.38073,-2.17374 -0.7594,-0.99079 -1.38073,-1.97457 -1.38073,-2.18616 0,-0.74482 -0.64623,-1.79144 -1.10611,-1.79144 -0.93916,0 -1.4962,1.0511 -1.60828,3.03471 -0.0929,1.64335 -0.0106,2.06625 0.63133,3.2457 0.40596,0.74588 1.25819,1.89328 1.89384,2.54978 l 1.15573,1.19364 0.0851,-1.14947 c 0.0665,-0.89793 0.26287,-1.28092 0.89747,-1.7501 z"
       id="path1392" />
    <path
       style="fill:#096abf;stroke-width:0.27541;fill-opacity:1"
       d="m 89.157551,172.47196 c -0.47307,-0.25628 -1.23059,-0.38589 -1.88864,-0.32313 -1.01831,0.0971 -1.21756,-0.01 -2.72159,-1.45871 -1.56061,-1.50353 -2.03508,-2.54093 -1.27859,-2.79554 0.27525,-0.0926 0.27532,-0.19944 3.6e-4,-0.53271 -0.46616,-0.56502 -0.78889,-2.97766 -0.39831,-2.97766 0.16313,0 0.37319,0.12394 0.46681,0.27541 0.28258,0.45723 0.68412,0.30899 0.49537,-0.18288 -0.11874,-0.30943 -0.0706,-0.39322 0.14831,-0.25795 0.37485,0.23167 1.08083,1.47725 1.73282,3.05723 l 0.4546,1.10164 0.0992,-1.76226 c 0.0839,-1.49028 0.004,-1.89173 -0.52047,-2.60106 -0.73802,-0.99897 -0.76158,-1.12056 -0.17337,-0.89485 0.34296,0.13161 0.41279,0.0431 0.30154,-0.38234 -0.12468,-0.47675 -0.0471,-0.52909 0.5587,-0.37704 0.49211,0.12351 0.64488,0.0817 0.50844,-0.13901 -0.14326,-0.2318 0.90073,-0.31558 3.93259,-0.31558 h 4.12762 l 0.54688,1.4459 c 0.30079,0.79525 0.63846,1.67758 0.75039,1.96072 0.19414,0.49116 0.0623,0.5056 -2.86809,0.31417 l -3.07158,-0.20066 -0.0267,1.3383 c -0.0147,0.73607 -0.004,2.42273 0.0229,3.74814 0.0273,1.32541 -0.0537,2.40488 -0.17987,2.39881 -0.12619,-0.006 -0.58489,-0.20359 -1.01932,-0.43894 z"
       id="path46452" />
  </g>
</svg>
